<mxfile host="app.diagrams.net" modified="2023-05-25T11:48:03.665Z" agent="Mozilla/5.0 (Windows NT 10.0; Win64; x64) AppleWebKit/537.36 (KHTML, like Gecko) Chrome/110.0.0.0 YaBrowser/23.3.4.603 Yowser/2.5 Safari/537.36" version="21.2.9" etag="llc6foZ7bxaxZqVKihAr" type="device">
  <diagram id="5e4z9wg3J-taRWTOz-F1" name="Страница 1">
    <mxGraphModel dx="1434" dy="783" grid="1" gridSize="10" guides="1" tooltips="1" connect="1" arrows="1" fold="1" page="1" pageScale="1" pageWidth="827" pageHeight="1169" math="0" shadow="0">
      <root>
        <mxCell id="0" />
        <mxCell id="1" parent="0" />
        <mxCell id="HqLaAqE5CqbQAqq2vOte-1" value="Модуль определения эмоции человека&amp;nbsp;" style="html=1;dropTarget=0;whiteSpace=wrap;" vertex="1" parent="1">
          <mxGeometry x="320" y="300" width="180" height="90" as="geometry" />
        </mxCell>
        <mxCell id="HqLaAqE5CqbQAqq2vOte-2" value="" style="shape=module;jettyWidth=8;jettyHeight=4;" vertex="1" parent="HqLaAqE5CqbQAqq2vOte-1">
          <mxGeometry x="1" width="20" height="20" relative="1" as="geometry">
            <mxPoint x="-27" y="7" as="offset" />
          </mxGeometry>
        </mxCell>
        <mxCell id="HqLaAqE5CqbQAqq2vOte-5" value="Модуль обучения модели" style="html=1;dropTarget=0;whiteSpace=wrap;" vertex="1" parent="1">
          <mxGeometry x="100" y="470" width="180" height="90" as="geometry" />
        </mxCell>
        <mxCell id="HqLaAqE5CqbQAqq2vOte-6" value="" style="shape=module;jettyWidth=8;jettyHeight=4;" vertex="1" parent="HqLaAqE5CqbQAqq2vOte-5">
          <mxGeometry x="1" width="20" height="20" relative="1" as="geometry">
            <mxPoint x="-27" y="7" as="offset" />
          </mxGeometry>
        </mxCell>
        <mxCell id="HqLaAqE5CqbQAqq2vOte-7" value="Модуль оценки" style="html=1;dropTarget=0;whiteSpace=wrap;" vertex="1" parent="1">
          <mxGeometry x="320" y="470" width="180" height="90" as="geometry" />
        </mxCell>
        <mxCell id="HqLaAqE5CqbQAqq2vOte-8" value="" style="shape=module;jettyWidth=8;jettyHeight=4;" vertex="1" parent="HqLaAqE5CqbQAqq2vOte-7">
          <mxGeometry x="1" width="20" height="20" relative="1" as="geometry">
            <mxPoint x="-27" y="7" as="offset" />
          </mxGeometry>
        </mxCell>
        <mxCell id="HqLaAqE5CqbQAqq2vOte-9" value="Модуль предобработки изображение" style="html=1;dropTarget=0;whiteSpace=wrap;" vertex="1" parent="1">
          <mxGeometry x="590" y="140" width="180" height="90" as="geometry" />
        </mxCell>
        <mxCell id="HqLaAqE5CqbQAqq2vOte-10" value="" style="shape=module;jettyWidth=8;jettyHeight=4;" vertex="1" parent="HqLaAqE5CqbQAqq2vOte-9">
          <mxGeometry x="1" width="20" height="20" relative="1" as="geometry">
            <mxPoint x="-27" y="7" as="offset" />
          </mxGeometry>
        </mxCell>
        <mxCell id="HqLaAqE5CqbQAqq2vOte-11" value="Модуль выгрузки данных" style="html=1;dropTarget=0;whiteSpace=wrap;" vertex="1" parent="1">
          <mxGeometry x="590" y="300" width="180" height="90" as="geometry" />
        </mxCell>
        <mxCell id="HqLaAqE5CqbQAqq2vOte-12" value="" style="shape=module;jettyWidth=8;jettyHeight=4;" vertex="1" parent="HqLaAqE5CqbQAqq2vOte-11">
          <mxGeometry x="1" width="20" height="20" relative="1" as="geometry">
            <mxPoint x="-27" y="7" as="offset" />
          </mxGeometry>
        </mxCell>
        <mxCell id="HqLaAqE5CqbQAqq2vOte-13" value="Сохранение данных в артефактах" style="html=1;dropTarget=0;whiteSpace=wrap;" vertex="1" parent="1">
          <mxGeometry x="130" y="140" width="180" height="90" as="geometry" />
        </mxCell>
        <mxCell id="HqLaAqE5CqbQAqq2vOte-14" value="" style="shape=module;jettyWidth=8;jettyHeight=4;" vertex="1" parent="HqLaAqE5CqbQAqq2vOte-13">
          <mxGeometry x="1" width="20" height="20" relative="1" as="geometry">
            <mxPoint x="-27" y="7" as="offset" />
          </mxGeometry>
        </mxCell>
        <mxCell id="HqLaAqE5CqbQAqq2vOte-15" value="" style="endArrow=classic;html=1;rounded=0;exitX=0;exitY=1;exitDx=0;exitDy=0;entryX=0.5;entryY=0;entryDx=0;entryDy=0;" edge="1" parent="1" source="HqLaAqE5CqbQAqq2vOte-1" target="HqLaAqE5CqbQAqq2vOte-5">
          <mxGeometry width="50" height="50" relative="1" as="geometry">
            <mxPoint x="390" y="390" as="sourcePoint" />
            <mxPoint x="440" y="340" as="targetPoint" />
          </mxGeometry>
        </mxCell>
        <mxCell id="HqLaAqE5CqbQAqq2vOte-16" value="" style="endArrow=classic;html=1;rounded=0;exitX=0.5;exitY=0;exitDx=0;exitDy=0;" edge="1" parent="1" source="HqLaAqE5CqbQAqq2vOte-7" target="HqLaAqE5CqbQAqq2vOte-1">
          <mxGeometry width="50" height="50" relative="1" as="geometry">
            <mxPoint x="390" y="390" as="sourcePoint" />
            <mxPoint x="440" y="340" as="targetPoint" />
          </mxGeometry>
        </mxCell>
        <mxCell id="HqLaAqE5CqbQAqq2vOte-17" value="" style="endArrow=classic;html=1;rounded=0;exitX=1;exitY=0.5;exitDx=0;exitDy=0;entryX=0;entryY=0.5;entryDx=0;entryDy=0;" edge="1" parent="1" source="HqLaAqE5CqbQAqq2vOte-5" target="HqLaAqE5CqbQAqq2vOte-7">
          <mxGeometry width="50" height="50" relative="1" as="geometry">
            <mxPoint x="390" y="390" as="sourcePoint" />
            <mxPoint x="440" y="340" as="targetPoint" />
          </mxGeometry>
        </mxCell>
        <mxCell id="HqLaAqE5CqbQAqq2vOte-18" value="" style="endArrow=classic;html=1;rounded=0;exitX=1;exitY=0.5;exitDx=0;exitDy=0;entryX=0;entryY=0.5;entryDx=0;entryDy=0;" edge="1" parent="1" source="HqLaAqE5CqbQAqq2vOte-1" target="HqLaAqE5CqbQAqq2vOte-11">
          <mxGeometry width="50" height="50" relative="1" as="geometry">
            <mxPoint x="470" y="170" as="sourcePoint" />
            <mxPoint x="430" y="250" as="targetPoint" />
          </mxGeometry>
        </mxCell>
        <mxCell id="HqLaAqE5CqbQAqq2vOte-20" value="" style="endArrow=classic;html=1;rounded=0;exitX=0.5;exitY=0;exitDx=0;exitDy=0;" edge="1" parent="1" source="HqLaAqE5CqbQAqq2vOte-11" target="HqLaAqE5CqbQAqq2vOte-9">
          <mxGeometry width="50" height="50" relative="1" as="geometry">
            <mxPoint x="390" y="390" as="sourcePoint" />
            <mxPoint x="440" y="340" as="targetPoint" />
          </mxGeometry>
        </mxCell>
        <mxCell id="HqLaAqE5CqbQAqq2vOte-21" value="" style="endArrow=classic;html=1;rounded=0;exitX=0;exitY=0.5;exitDx=0;exitDy=0;entryX=1;entryY=0.5;entryDx=0;entryDy=0;" edge="1" parent="1" source="HqLaAqE5CqbQAqq2vOte-9" target="HqLaAqE5CqbQAqq2vOte-13">
          <mxGeometry width="50" height="50" relative="1" as="geometry">
            <mxPoint x="390" y="390" as="sourcePoint" />
            <mxPoint x="440" y="340" as="targetPoint" />
          </mxGeometry>
        </mxCell>
        <mxCell id="HqLaAqE5CqbQAqq2vOte-22" value="" style="endArrow=classic;html=1;rounded=0;exitX=0.5;exitY=1;exitDx=0;exitDy=0;entryX=0.5;entryY=0;entryDx=0;entryDy=0;" edge="1" parent="1" source="HqLaAqE5CqbQAqq2vOte-13" target="HqLaAqE5CqbQAqq2vOte-1">
          <mxGeometry width="50" height="50" relative="1" as="geometry">
            <mxPoint x="390" y="390" as="sourcePoint" />
            <mxPoint x="440" y="340" as="targetPoint" />
          </mxGeometry>
        </mxCell>
        <mxCell id="HqLaAqE5CqbQAqq2vOte-23" value="" style="endArrow=classic;html=1;rounded=0;exitX=0.5;exitY=1;exitDx=0;exitDy=0;" edge="1" parent="1" source="HqLaAqE5CqbQAqq2vOte-13">
          <mxGeometry width="50" height="50" relative="1" as="geometry">
            <mxPoint x="390" y="390" as="sourcePoint" />
            <mxPoint x="200" y="470" as="targetPoint" />
          </mxGeometry>
        </mxCell>
      </root>
    </mxGraphModel>
  </diagram>
</mxfile>
